<svg width="50" height="50" viewBox="0 0 50 50" fill="none" xmlns="http://www.w3.org/2000/svg">
<g clip-path="url(#clip0_36_560)">
<path d="M35.4167 32.6042C35.3887 32.5323 35.3438 32.4683 35.2858 32.4175C35.2278 32.3667 35.1583 32.3307 35.0834 32.3125C35.0145 32.2821 34.94 32.2664 34.8647 32.2664C34.7893 32.2664 34.7148 32.2821 34.6459 32.3125C33.815 32.9035 32.9289 33.4128 32.0001 33.8333C31.8763 33.8924 31.7795 33.9961 31.7292 34.1237C31.679 34.2513 31.679 34.3932 31.7292 34.5208L33.5626 38.6875C33.597 38.7663 33.6147 38.8515 33.6147 38.9375C33.6147 39.0235 33.597 39.1086 33.5626 39.1875C33.513 39.2576 33.4475 39.315 33.3715 39.3548C33.2954 39.3947 33.2109 39.4159 33.1251 39.4167H17.0001C16.8851 39.432 16.7683 39.4101 16.6667 39.3542C16.6323 39.2753 16.6146 39.1902 16.6146 39.1042C16.6146 39.0181 16.6323 38.933 16.6667 38.8542L18.5001 34.6875C18.5503 34.5599 18.5503 34.418 18.5001 34.2904C18.4498 34.1628 18.353 34.059 18.2292 34C17.3004 33.5794 16.4143 33.0701 15.5834 32.4792C15.5145 32.4487 15.44 32.433 15.3647 32.433C15.2893 32.433 15.2148 32.4487 15.1459 32.4792C15.0723 32.5003 15.0043 32.5374 14.9467 32.5878C14.8891 32.6382 14.8433 32.7007 14.8126 32.7708L8.56257 47.3542C8.34751 47.8625 8.343 48.4355 8.55002 48.9472C8.75704 49.4589 9.15868 49.8675 9.66673 50.0833C9.91962 50.0972 10.1731 50.069 10.4167 50C10.8257 49.9997 11.2255 49.879 11.5663 49.653C11.9071 49.427 12.1739 49.1057 12.3334 48.7292L14.4167 44.0625C14.449 43.9837 14.5 43.9141 14.5654 43.8596C14.6307 43.8051 14.7085 43.7675 14.7917 43.75H35.2084C35.3101 43.7496 35.4096 43.779 35.4947 43.8346C35.5799 43.8901 35.6469 43.9693 35.6876 44.0625L37.6667 48.7292C37.8262 49.1057 38.093 49.427 38.4338 49.653C38.7747 49.879 39.1745 49.9997 39.5834 50C39.8621 49.9943 40.1375 49.9378 40.3959 49.8333C40.904 49.6175 41.3056 49.2089 41.5126 48.6972C41.7196 48.1855 41.7151 47.6125 41.5001 47.1042L35.4167 32.6042Z" fill="#94191D"/>
<path d="M38.021 18.3958C37.8239 18.1774 37.5827 18.0032 37.3134 17.8847C37.0441 17.7662 36.7527 17.7061 36.4585 17.7083H13.5419C13.2511 17.709 12.9638 17.7705 12.6983 17.8889C12.4328 18.0074 12.195 18.18 12.0002 18.3958C11.8107 18.603 11.665 18.8464 11.5719 19.1113C11.4788 19.3763 11.4402 19.6573 11.4585 19.9375C11.7824 23.3045 13.349 26.4301 15.8527 28.7045C18.3564 30.979 21.6176 32.2391 25.0002 32.2391C28.3827 32.2391 31.644 30.979 34.1477 28.7045C36.6514 26.4301 38.218 23.3045 38.5418 19.9375C38.5629 19.6587 38.5277 19.3786 38.4382 19.1137C38.3487 18.8489 38.2068 18.6047 38.021 18.3958ZM15.1877 15.0208C14.7997 14.6305 14.5819 14.1025 14.5819 13.5521C14.5819 13.0017 14.7997 12.4737 15.1877 12.0833C15.3774 11.8852 15.526 11.6516 15.6252 11.3958L15.0627 10.7083C14.1502 9.797 13.6083 8.57956 13.5419 7.29166C13.645 5.94509 14.2292 4.68058 15.1877 3.72916C15.58 3.33686 16.1121 3.11647 16.6669 3.11647C17.2216 3.11647 17.7537 3.33686 18.146 3.72916C18.5383 4.12146 18.7587 4.65354 18.7587 5.20833C18.7587 5.76313 18.5383 6.2952 18.146 6.6875C17.9541 6.87578 17.8049 7.10314 17.7085 7.35416L18.271 8.04166C19.1835 8.95299 19.7254 10.1704 19.7919 11.4583C19.6887 12.8049 19.1045 14.0694 18.146 15.0208C17.9523 15.2161 17.7219 15.3711 17.4681 15.4769C17.2142 15.5826 16.9419 15.6371 16.6669 15.6371C16.3918 15.6371 16.1195 15.5826 15.8656 15.4769C15.6118 15.3711 15.3814 15.2161 15.1877 15.0208ZM31.8543 15.0208C31.4663 14.6305 31.2485 14.1025 31.2485 13.5521C31.2485 13.0017 31.4663 12.4737 31.8543 12.0833C32.044 11.8852 32.1927 11.6516 32.2918 11.3958L31.7293 10.7083C30.8169 9.797 30.275 8.57956 30.2085 7.29166C30.3117 5.94509 30.8959 4.68058 31.8543 3.72916C32.2466 3.33686 32.7787 3.11647 33.3335 3.11647C33.8883 3.11647 34.4204 3.33686 34.8127 3.72916C35.205 4.12146 35.4254 4.65354 35.4254 5.20833C35.4254 5.76313 35.205 6.2952 34.8127 6.6875C34.6207 6.87578 34.4715 7.10314 34.3752 7.35416L34.9377 8.04166C35.8501 8.95299 36.392 10.1704 36.4585 11.4583C36.3554 12.8049 35.7712 14.0694 34.8127 15.0208C34.619 15.2161 34.3886 15.3711 34.1347 15.4769C33.8808 15.5826 33.6085 15.6371 33.3335 15.6371C33.0585 15.6371 32.7862 15.5826 32.5323 15.4769C32.2784 15.3711 32.048 15.2161 31.8543 15.0208ZM23.521 15.0208C23.133 14.6305 22.9152 14.1025 22.9152 13.5521C22.9152 13.0017 23.133 12.4737 23.521 12.0833C23.9202 11.6939 24.208 11.2048 24.3543 10.6667C24.3543 10.2917 23.896 9.72916 23.396 9.14583C22.2752 8.03375 21.5945 6.55384 21.4794 4.97916C21.632 3.32569 22.371 1.78131 23.5627 0.624997C23.7569 0.43075 23.9875 0.276665 24.2413 0.171539C24.4951 0.0664137 24.7671 0.0123062 25.0419 0.0123062C25.3166 0.0123062 25.5886 0.0664137 25.8424 0.171539C26.0962 0.276665 26.3268 0.43075 26.521 0.624997C26.7153 0.819244 26.8693 1.04985 26.9745 1.30364C27.0796 1.55744 27.1337 1.82946 27.1337 2.10416C27.1337 2.37887 27.0796 2.65089 26.9745 2.90468C26.8693 3.15848 26.7153 3.38908 26.521 3.58333C26.1201 3.96304 25.8317 4.44606 25.6877 4.97916C25.6877 5.35416 26.146 5.91666 26.646 6.5C27.7668 7.61207 28.4476 9.09198 28.5627 10.6667C28.41 12.3201 27.6711 13.8645 26.4794 15.0208C26.2857 15.2161 26.0553 15.3711 25.8014 15.4769C25.5475 15.5826 25.2752 15.6371 25.0002 15.6371C24.7252 15.6371 24.4529 15.5826 24.199 15.4769C23.9451 15.3711 23.7147 15.2161 23.521 15.0208Z" fill="#94191D"/>
</g>
<defs>
<clipPath id="clip0_36_560">
<rect width="50" height="50" fill="white"/>
</clipPath>
</defs>
</svg>
