<svg width="47" height="47" viewBox="0 0 47 47" fill="none" xmlns="http://www.w3.org/2000/svg">
<path d="M23.4375 0C10.4937 0 0 10.4937 0 23.4375C0 36.3813 10.4937 46.875 23.4375 46.875C36.3813 46.875 46.875 36.3813 46.875 23.4375C46.875 10.4937 36.3813 0 23.4375 0ZM45.3125 23.4375C45.3118 25.0122 45.141 26.5823 44.8031 28.1203L23.4375 38.8023L2.07266 28.1203C1.74141 26.6109 1.5625 25.0453 1.5625 23.4375C1.5625 21.8297 1.74141 20.2641 2.07266 18.7547L23.4375 8.07266L44.8031 18.7547C45.141 20.2927 45.3118 21.8628 45.3125 23.4375Z" fill="#94191D"/>
</svg>
