<svg width="32" height="41" viewBox="0 0 32 41" fill="none" xmlns="http://www.w3.org/2000/svg">
<g clip-path="url(#clip0_83_325)">
<path d="M15.8333 3C12.8833 3 10.2833 4.95 9.45 7.78333C8.56667 7.38333 7.63333 7.16667 6.66667 7.16667C4.89856 7.16667 3.20286 7.86904 1.95262 9.11929C0.702379 10.3695 0 12.0652 0 13.8333C0.00394884 15.3097 0.496657 16.7433 1.4012 17.9101C2.30574 19.077 3.5712 19.9115 5 20.2833V32.1667H26.6667V20.2833C29.6 19.5167 31.6667 16.8667 31.6667 13.8333C31.6667 12.0652 30.9643 10.3695 29.714 9.11929C28.4638 7.86904 26.7681 7.16667 25 7.16667C24.0333 7.16667 23.1 7.38333 22.2167 7.78333C21.3833 4.95 18.7833 3 15.8333 3ZM15 18H16.6667V29.6667H15V18ZM10 21.3333H11.6667V29.6667H10V21.3333ZM20 21.3333H21.6667V29.6667H20V21.3333ZM5 33.8333V35.5C5 35.942 5.17559 36.3659 5.48816 36.6785C5.80072 36.9911 6.22464 37.1667 6.66667 37.1667H25C25.442 37.1667 25.866 36.9911 26.1785 36.6785C26.4911 36.3659 26.6667 35.942 26.6667 35.5V33.8333H5Z" fill="#F5F5F5"/>
</g>
<defs>
<clipPath id="clip0_83_325">
<rect width="31.6667" height="40.1667" fill="white"/>
</clipPath>
</defs>
</svg>
