<svg width="50" height="50" viewBox="0 0 50 50" fill="none" xmlns="http://www.w3.org/2000/svg">
<circle cx="25" cy="25" r="25" fill="#94191D"/>
<path fill-rule="evenodd" clip-rule="evenodd" d="M15 25C15.0002 23.0756 15.5556 21.1921 16.5997 19.5755C17.6438 17.9589 19.1322 16.6779 20.8863 15.8863C22.6403 15.0946 24.5856 14.8259 26.4885 15.1123C28.3915 15.3988 30.1715 16.2283 31.6147 17.5012C33.058 18.7742 34.1033 20.4366 34.6252 22.2889C35.1471 24.1412 35.1235 26.1048 34.5571 27.944C33.9908 29.7832 32.9057 31.4199 31.4322 32.6577C29.9587 33.8956 28.1593 34.6819 26.25 34.9225V27.5H28.75C29.0815 27.5 29.3995 27.3683 29.6339 27.1339C29.8683 26.8995 30 26.5815 30 26.25C30 25.9185 29.8683 25.6005 29.6339 25.3661C29.3995 25.1317 29.0815 25 28.75 25H26.25V22.5C26.25 22.1685 26.3817 21.8505 26.6161 21.6161C26.8505 21.3817 27.1685 21.25 27.5 21.25H28.125C28.4565 21.25 28.7745 21.1183 29.0089 20.8839C29.2433 20.6495 29.375 20.3315 29.375 20C29.375 19.6685 29.2433 19.3505 29.0089 19.1161C28.7745 18.8817 28.4565 18.75 28.125 18.75H27.5C26.5054 18.75 25.5516 19.1451 24.8483 19.8483C24.1451 20.5516 23.75 21.5054 23.75 22.5V25H21.25C20.9185 25 20.6005 25.1317 20.3661 25.3661C20.1317 25.6005 20 25.9185 20 26.25C20 26.5815 20.1317 26.8995 20.3661 27.1339C20.6005 27.3683 20.9185 27.5 21.25 27.5H23.75V34.9225C21.3333 34.618 19.1108 33.4419 17.4997 31.615C15.8886 29.788 14.9998 27.4358 15 25ZM25 37.5C31.9037 37.5 37.5 31.9037 37.5 25C37.5 18.0963 31.9037 12.5 25 12.5C18.0963 12.5 12.5 18.0963 12.5 25C12.5 31.9037 18.0963 37.5 25 37.5Z" fill="white"/>
</svg>
