<svg width="42" height="39" viewBox="0 0 42 39" fill="none" xmlns="http://www.w3.org/2000/svg">
<path d="M20.8333 38.2292L17.8125 35.5208C14.3056 32.3611 11.4062 29.6354 9.11458 27.3437C6.82292 25.0521 5 22.9944 3.64583 21.1708C2.29167 19.3472 1.34583 17.6722 0.808333 16.1458C0.270833 14.6194 0.00138889 13.0569 0 11.4583C0 8.19444 1.09375 5.46875 3.28125 3.28125C5.46875 1.09375 8.19444 0 11.4583 0C13.2639 0 14.9826 0.381944 16.6146 1.14583C18.2465 1.90972 19.6528 2.98611 20.8333 4.375C22.0139 2.98611 23.4201 1.90972 25.0521 1.14583C26.684 0.381944 28.4028 0 30.2083 0C33.4722 0 36.1979 1.09375 38.3854 3.28125C40.5729 5.46875 41.6667 8.19444 41.6667 11.4583C41.6667 13.0556 41.3979 14.6181 40.8604 16.1458C40.3229 17.6736 39.3764 19.3486 38.0208 21.1708C36.6653 22.9931 34.8424 25.0507 32.5521 27.3437C30.2618 29.6368 27.3625 32.3625 23.8542 35.5208L20.8333 38.2292Z" fill="#94191D"/>
</svg>
