<svg width="50" height="50" viewBox="0 0 50 50" fill="none" xmlns="http://www.w3.org/2000/svg">
<g clip-path="url(#clip0_36_565)">
<path d="M50.0001 25C50.0001 23.3848 48.6065 20.4336 45.546 17.7734C43.7991 16.2707 41.8082 15.0778 39.6592 14.2461C39.5878 14.2194 39.5089 14.2201 39.438 14.2483C39.3671 14.2765 39.3091 14.33 39.2755 14.3984C39.2608 14.4268 39.2462 14.4541 39.2296 14.4824L38.293 16.0352C36.7137 18.7623 35.8826 21.8582 35.8838 25.0097C35.885 28.1612 36.7185 31.2565 38.2999 33.9824L38.3223 34.0205L39.1759 35.583C39.2211 35.666 39.295 35.7297 39.3837 35.7624C39.4724 35.7951 39.57 35.7945 39.6583 35.7607C46.8389 32.9512 50.0001 27.4893 50.0001 25ZM40.8282 24.9863C40.5046 25.0287 40.1759 24.9686 39.8881 24.8146C39.6004 24.6605 39.3681 24.4203 39.2239 24.1275C39.0797 23.8347 39.0308 23.5042 39.084 23.1822C39.1372 22.8602 39.2899 22.5629 39.5207 22.3322C39.7515 22.1014 40.0487 21.9487 40.3707 21.8954C40.6927 21.8422 41.0233 21.8911 41.316 22.0354C41.6088 22.1796 41.8491 22.4119 42.0031 22.6996C42.1571 22.9873 42.2172 23.316 42.1749 23.6396C42.1302 23.9812 41.974 24.2983 41.7304 24.5419C41.4869 24.7854 41.1697 24.9417 40.8282 24.9863Z" fill="#94191D"/>
<path d="M32.7588 25C32.7575 21.2953 33.7373 17.6563 35.5987 14.4531L35.6104 14.4326L36.0616 13.6836C36.0942 13.6302 36.1135 13.5698 36.1179 13.5074C36.1223 13.4451 36.1117 13.3825 36.0869 13.3251C36.0621 13.2677 36.0239 13.2171 35.9755 13.1775C35.927 13.1379 35.8698 13.1105 35.8086 13.0977C34.5445 12.8331 33.2633 12.6573 31.9746 12.5713C31.8227 12.5615 31.677 12.5071 31.5557 12.415C29.6729 10.9834 25.9405 8.47949 22.1358 7.83594C21.8758 7.79286 21.6091 7.81624 21.3606 7.9039C21.1121 7.99157 20.8897 8.14067 20.7143 8.33734C20.5389 8.53401 20.4161 8.77186 20.3573 9.02875C20.2984 9.28565 20.3056 9.55324 20.378 9.80664L21.4151 13.4365C21.442 13.5306 21.4327 13.6314 21.389 13.7189C21.3452 13.8064 21.2702 13.8743 21.1787 13.9092C17.5801 15.2461 14.4805 17.6934 12.2198 19.5586C12.0814 19.6718 11.9084 19.7342 11.7296 19.7353C11.5508 19.7363 11.377 19.676 11.2373 19.5645C10.93 19.3203 10.6146 19.0798 10.2911 18.8428C6.41996 16.0156 1.87211 15.6436 1.6807 15.6299C1.43768 15.6115 1.19374 15.6503 0.96836 15.743C0.742986 15.8358 0.542431 15.9799 0.382726 16.164C0.223021 16.3481 0.108593 16.567 0.0485882 16.8032C-0.0114168 17.0394 -0.015335 17.2864 0.0371465 17.5244C0.0781621 17.7129 0.934608 21.498 3.13285 24.5176C3.23181 24.6529 3.28514 24.8162 3.28514 24.9839C3.28514 25.1515 3.23181 25.3149 3.13285 25.4502C0.934608 28.4687 0.0781621 32.2549 0.0371465 32.4434C-0.015335 32.6814 -0.0114168 32.9283 0.0485882 33.1645C0.108593 33.4007 0.223021 33.6196 0.382726 33.8037C0.542431 33.9878 0.742986 34.132 0.96836 34.2248C1.19374 34.3175 1.43768 34.3562 1.6807 34.3379C1.87601 34.3242 6.41996 33.9473 10.2862 31.127C10.6019 30.8952 10.9102 30.6602 11.211 30.4219C11.3508 30.3104 11.5246 30.2503 11.7034 30.2515C11.8822 30.2528 12.0551 30.3153 12.1934 30.4287C14.4639 32.3027 17.5694 34.7529 21.1778 36.0928C21.269 36.1276 21.3438 36.1954 21.3876 36.2827C21.4313 36.37 21.4408 36.4705 21.4141 36.5645L20.3731 40.1953C20.3007 40.4487 20.2936 40.7163 20.3524 40.9732C20.4112 41.2301 20.534 41.4679 20.7094 41.6646C20.8849 41.8613 21.1072 42.0104 21.3557 42.098C21.6042 42.1857 21.8709 42.2091 22.1309 42.166C23.8067 41.8828 27.1973 40.9102 31.5108 37.5928C31.634 37.4988 31.782 37.4427 31.9366 37.4316C33.2236 37.3474 34.5034 37.1745 35.7666 36.9141C35.8263 36.9015 35.8821 36.8753 35.9298 36.8373C35.9775 36.7993 36.0156 36.7507 36.0411 36.6954C36.0666 36.6401 36.0788 36.5796 36.0768 36.5187C36.0748 36.4578 36.0585 36.3982 36.0293 36.3447L35.5889 35.5352C33.733 32.3345 32.7566 28.6999 32.7588 25Z" fill="#94191D"/>
</g>
<defs>
<clipPath id="clip0_36_565">
<rect width="50" height="50" fill="white"/>
</clipPath>
</defs>
</svg>
