<svg width="223" height="27" viewBox="0 0 223 27" fill="none" xmlns="http://www.w3.org/2000/svg">
<path d="M0.816 26.408C0.672 26.072 0.56 25.648 0.48 25.136C0.4 24.624 0.352 24.096 0.336 23.552C0.32 22.992 0.336 22.456 0.384 21.944C0.448 21.432 0.536 21.008 0.648 20.672C0.888 20.576 1.12 20.416 1.344 20.192C1.584 19.952 1.784 19.576 1.944 19.064C2.104 18.536 2.184 17.8 2.184 16.856C2.184 15.832 2.088 15.064 1.896 14.552C1.72 14.024 1.504 13.672 1.248 13.496C1.008 13.304 0.792 13.208 0.6 13.208C0.456 12.92 0.352 12.528 0.288 12.032C0.224 11.536 0.192 11.008 0.192 10.448C0.208 9.872 0.256 9.32 0.336 8.792C0.416 8.248 0.536 7.784 0.696 7.4C0.968 7.416 1.392 7.44 1.968 7.472C2.56 7.488 3.248 7.512 4.032 7.544C4.816 7.56 5.632 7.576 6.48 7.592C7.344 7.608 8.192 7.624 9.024 7.64C9.856 7.64 10.608 7.64 11.28 7.64C12.976 7.64 14.72 7.616 16.512 7.568C18.32 7.52 20.248 7.456 22.296 7.376C22.376 7.68 22.448 8.176 22.512 8.864C22.576 9.552 22.624 10.336 22.656 11.216C22.688 12.08 22.704 12.952 22.704 13.832C22.704 14.712 22.68 15.504 22.632 16.208C22.584 16.912 22.512 17.424 22.416 17.744C21.296 17.936 20.168 18.032 19.032 18.032C17.912 18.032 16.592 17.936 15.072 17.744C14.928 16.528 14.928 15.312 15.072 14.096H12.216V15.08H14.544V19.088H12.216C12.216 19.504 12.368 19.8 12.672 19.976C12.976 20.152 13.624 20.224 14.616 20.192C14.728 20.48 14.808 20.896 14.856 21.44C14.92 21.984 14.952 22.576 14.952 23.216C14.952 23.856 14.92 24.464 14.856 25.04C14.808 25.616 14.72 26.072 14.592 26.408C14.288 26.36 13.784 26.304 13.08 26.24C12.392 26.192 11.632 26.144 10.8 26.096C9.984 26.048 9.216 26.024 8.496 26.024C7.904 26.024 7.248 26.032 6.528 26.048C5.824 26.08 5.112 26.112 4.392 26.144C3.672 26.192 3 26.24 2.376 26.288C1.752 26.336 1.232 26.376 0.816 26.408ZM34.7784 26.84C30.9384 26.84 28.0344 26.024 26.0664 24.392C24.1144 22.76 23.1384 20.344 23.1384 17.144C23.1384 13.624 24.1304 11.04 26.1144 9.392C28.0984 7.744 31.0264 6.92 34.8984 6.92C39.0264 6.92 42.0504 7.736 43.9704 9.368C45.8904 10.984 46.8504 13.368 46.8504 16.52C46.8504 20.088 45.8344 22.704 43.8024 24.368C41.7704 26.016 38.7624 26.84 34.7784 26.84ZM34.2504 18.416H35.7144V15.32H34.2504V18.416ZM58.9659 26.84C55.1259 26.84 52.2219 26.024 50.2539 24.392C48.3019 22.76 47.3259 20.344 47.3259 17.144C47.3259 13.624 48.3179 11.04 50.3019 9.392C52.2859 7.744 55.2139 6.92 59.0859 6.92C63.2139 6.92 66.2379 7.736 68.1579 9.368C70.0779 10.984 71.0379 13.368 71.0379 16.52C71.0379 20.088 70.0219 22.704 67.9899 24.368C65.9579 26.016 62.9499 26.84 58.9659 26.84ZM58.4379 18.416H59.9019V15.32H58.4379V18.416ZM83.3109 26.576C82.0309 26.576 80.9109 26.552 79.9509 26.504C78.9909 26.472 78.0869 26.432 77.2389 26.384C76.3909 26.352 75.5109 26.328 74.5989 26.312C73.6869 26.312 72.6389 26.336 71.4549 26.384C71.3269 26.048 71.2229 25.632 71.1429 25.136C71.0629 24.624 71.0149 24.088 70.9989 23.528C70.9989 22.968 71.0149 22.44 71.0469 21.944C71.0949 21.432 71.1749 21.008 71.2869 20.672C71.6229 20.576 71.9109 20.4 72.1509 20.144C72.3909 19.872 72.5749 19.456 72.7029 18.896C72.8309 18.336 72.8949 17.576 72.8949 16.616C72.8949 15.704 72.8149 15.008 72.6549 14.528C72.5109 14.048 72.3189 13.712 72.0789 13.52C71.8389 13.328 71.5749 13.208 71.2869 13.16C71.1269 12.696 71.0149 12.112 70.9509 11.408C70.8869 10.688 70.8869 9.96 70.9509 9.224C71.0309 8.472 71.1749 7.832 71.3829 7.304C72.4069 7.4 73.3749 7.448 74.2869 7.448C75.2149 7.448 76.1669 7.432 77.1429 7.4C78.1189 7.352 79.1829 7.312 80.3349 7.28C81.4869 7.232 82.8069 7.208 84.2949 7.208C87.6869 7.208 90.2789 7.912 92.0709 9.32C93.8789 10.728 94.7829 12.984 94.7829 16.088C94.7829 17.128 94.6869 18.16 94.4949 19.184C94.3189 20.192 93.9909 21.144 93.5109 22.04C93.0469 22.92 92.3829 23.704 91.5189 24.392C90.6549 25.064 89.5509 25.6 88.2069 26C86.8789 26.384 85.2469 26.576 83.3109 26.576ZM82.2309 18.296H83.6949V15.2H82.2309V18.296ZM105.977 26.408C105.849 26.072 105.745 25.648 105.665 25.136C105.585 24.624 105.537 24.096 105.521 23.552C105.521 22.992 105.537 22.456 105.569 21.944C105.617 21.432 105.697 21.008 105.809 20.672C106.321 20.544 106.713 20.192 106.985 19.616C107.257 19.024 107.393 18.024 107.393 16.616V14.888H106.625C106.769 16.104 106.745 17.304 106.553 18.488C105.929 18.616 105.337 18.704 104.777 18.752C104.217 18.784 103.625 18.784 103.001 18.752C102.377 18.704 101.649 18.616 100.817 18.488C100.721 17.928 100.649 17.24 100.601 16.424C100.553 15.592 100.529 14.72 100.529 13.808C100.529 12.88 100.545 11.984 100.577 11.12C100.609 10.256 100.657 9.496 100.721 8.84C100.785 8.168 100.857 7.68 100.937 7.376C101.881 7.376 103.305 7.44 105.209 7.568C107.113 7.68 109.537 7.736 112.481 7.736C114.481 7.736 116.193 7.704 117.617 7.64C119.041 7.576 120.241 7.52 121.217 7.472C122.209 7.408 123.025 7.376 123.665 7.376C123.745 7.728 123.817 8.256 123.881 8.96C123.945 9.648 123.993 10.432 124.025 11.312C124.057 12.176 124.073 13.064 124.073 13.976C124.073 14.872 124.049 15.72 124.001 16.52C123.953 17.304 123.881 17.96 123.785 18.488C122.953 18.616 122.233 18.704 121.625 18.752C121.017 18.784 120.425 18.784 119.849 18.752C119.289 18.704 118.649 18.616 117.929 18.488C117.737 17.32 117.713 16.128 117.857 14.912H117.089V16.616C117.089 17.56 117.169 18.312 117.329 18.872C117.505 19.432 117.729 19.848 118.001 20.12C118.273 20.392 118.577 20.576 118.913 20.672C119.025 21.008 119.097 21.432 119.129 21.944C119.177 22.456 119.193 22.992 119.177 23.552C119.177 24.096 119.137 24.624 119.057 25.136C118.977 25.648 118.873 26.072 118.745 26.408C118.041 26.328 117.153 26.24 116.081 26.144C115.025 26.064 113.785 26.024 112.361 26.024C110.873 26.024 109.609 26.064 108.569 26.144C107.545 26.24 106.681 26.328 105.977 26.408ZM136.146 26.84C132.306 26.84 129.402 26.024 127.434 24.392C125.482 22.76 124.506 20.344 124.506 17.144C124.506 13.624 125.498 11.04 127.482 9.392C129.466 7.744 132.394 6.92 136.266 6.92C140.394 6.92 143.418 7.736 145.338 9.368C147.258 10.984 148.218 13.368 148.218 16.52C148.218 20.088 147.202 22.704 145.17 24.368C143.138 26.016 140.13 26.84 136.146 26.84ZM135.618 18.416H137.082V15.32H135.618V18.416ZM160.491 26.576C159.211 26.576 158.091 26.552 157.131 26.504C156.171 26.472 155.267 26.432 154.419 26.384C153.571 26.352 152.691 26.328 151.779 26.312C150.867 26.312 149.819 26.336 148.635 26.384C148.507 26.048 148.403 25.632 148.323 25.136C148.243 24.624 148.195 24.088 148.179 23.528C148.179 22.968 148.195 22.44 148.227 21.944C148.275 21.432 148.355 21.008 148.467 20.672C148.803 20.576 149.091 20.4 149.331 20.144C149.571 19.872 149.755 19.456 149.883 18.896C150.011 18.336 150.075 17.576 150.075 16.616C150.075 15.704 149.995 15.008 149.835 14.528C149.691 14.048 149.499 13.712 149.259 13.52C149.019 13.328 148.755 13.208 148.467 13.16C148.307 12.696 148.195 12.112 148.131 11.408C148.067 10.688 148.067 9.96 148.131 9.224C148.211 8.472 148.355 7.832 148.563 7.304C149.587 7.4 150.555 7.448 151.467 7.448C152.395 7.448 153.347 7.432 154.323 7.4C155.299 7.352 156.363 7.312 157.515 7.28C158.667 7.232 159.987 7.208 161.475 7.208C164.867 7.208 167.459 7.912 169.251 9.32C171.059 10.728 171.963 12.984 171.963 16.088C171.963 17.128 171.867 18.16 171.675 19.184C171.499 20.192 171.171 21.144 170.691 22.04C170.227 22.92 169.563 23.704 168.699 24.392C167.835 25.064 166.731 25.6 165.387 26C164.059 26.384 162.427 26.576 160.491 26.576ZM159.411 18.296H160.875V15.2H159.411V18.296ZM172.117 26.408C171.989 26.072 171.885 25.648 171.805 25.136C171.725 24.624 171.677 24.096 171.661 23.552C171.661 22.992 171.677 22.456 171.709 21.944C171.757 21.432 171.837 21.008 171.949 20.672C172.461 20.56 172.853 20.328 173.125 19.976C173.413 19.608 173.621 19.168 173.749 18.656C173.877 18.128 173.981 17.584 174.061 17.024C174.157 16.432 174.221 15.864 174.253 15.32C174.285 14.76 174.221 14.288 174.061 13.904C173.917 13.52 173.597 13.288 173.101 13.208C172.957 12.92 172.853 12.528 172.789 12.032C172.725 11.536 172.693 11.008 172.693 10.448C172.709 9.872 172.757 9.32 172.837 8.792C172.917 8.248 173.037 7.784 173.197 7.4C173.853 7.464 174.661 7.528 175.621 7.592C176.581 7.64 177.861 7.664 179.461 7.664C180.549 7.664 181.725 7.624 182.989 7.544C184.269 7.448 185.581 7.36 186.925 7.28C188.269 7.2 189.581 7.16 190.861 7.16C191.949 7.16 192.805 7.392 193.429 7.856C194.069 8.304 194.549 8.896 194.869 9.632C195.189 10.368 195.397 11.16 195.493 12.008C195.589 12.856 195.629 13.688 195.613 14.504C195.613 15.304 195.613 16 195.613 16.592C195.613 17.536 195.701 18.288 195.877 18.848C196.053 19.392 196.285 19.8 196.573 20.072C196.877 20.344 197.197 20.544 197.533 20.672C197.645 21.008 197.717 21.432 197.749 21.944C197.797 22.456 197.813 22.992 197.797 23.552C197.797 24.096 197.757 24.624 197.677 25.136C197.597 25.648 197.493 26.072 197.365 26.408C196.709 26.344 195.917 26.264 194.989 26.168C194.077 26.072 192.973 26.024 191.677 26.024C190.349 26.024 189.093 26.072 187.909 26.168C186.741 26.264 185.829 26.344 185.173 26.408C185.109 26.072 185.053 25.648 185.005 25.136C184.957 24.624 184.925 24.096 184.909 23.552C184.893 22.992 184.893 22.456 184.909 21.944C184.925 21.432 184.957 21.008 185.005 20.672H185.677V19.472H183.589V20.672H184.261C184.325 21.008 184.365 21.432 184.381 21.944C184.413 22.456 184.421 22.992 184.405 23.552C184.389 24.096 184.357 24.624 184.309 25.136C184.261 25.648 184.189 26.072 184.093 26.408C183.661 26.36 183.197 26.304 182.701 26.24C182.221 26.192 181.653 26.144 180.997 26.096C180.357 26.048 179.565 26.024 178.621 26.024C177.133 26.024 175.853 26.064 174.781 26.144C173.709 26.24 172.821 26.328 172.117 26.408ZM183.757 15.944H185.485V14.816H183.757V15.944ZM202.635 26.408C202.459 25.944 202.331 25.368 202.251 24.68C202.187 23.992 202.171 23.312 202.203 22.64C202.235 21.952 202.323 21.392 202.467 20.96C202.835 21.04 203.203 21.104 203.571 21.152C203.939 21.2 204.315 21.24 204.699 21.272L204.771 20.6C203.779 20.536 202.843 20.36 201.963 20.072C201.099 19.768 200.363 19.272 199.755 18.584C199.147 17.896 198.723 16.928 198.483 15.68C198.355 14.976 198.115 14.392 197.763 13.928C197.427 13.464 196.995 13.224 196.467 13.208C196.323 12.92 196.219 12.528 196.155 12.032C196.091 11.536 196.059 11.008 196.059 10.448C196.075 9.872 196.123 9.32 196.203 8.792C196.283 8.248 196.403 7.784 196.563 7.4C197.219 7.464 198.147 7.536 199.347 7.616C200.563 7.696 201.915 7.736 203.403 7.736C204.491 7.736 205.483 7.696 206.379 7.616C207.291 7.536 208.075 7.464 208.731 7.4C208.635 7.896 208.547 8.48 208.467 9.152C208.403 9.808 208.403 10.488 208.467 11.192C208.547 11.88 208.747 12.544 209.067 13.184C209.387 13.808 209.883 14.344 210.555 14.792L210.963 14.216C210.291 13.768 209.811 13.2 209.523 12.512C209.251 11.808 209.123 11.024 209.139 10.16C209.155 9.28 209.267 8.36 209.475 7.4C210.131 7.48 210.995 7.56 212.067 7.64C213.139 7.704 214.475 7.736 216.075 7.736C216.587 7.736 217.179 7.72 217.851 7.688C218.523 7.64 219.187 7.592 219.843 7.544C220.499 7.48 221.043 7.432 221.475 7.4C221.635 7.784 221.755 8.248 221.835 8.792C221.915 9.32 221.955 9.872 221.955 10.448C221.971 11.008 221.947 11.536 221.883 12.032C221.819 12.528 221.715 12.92 221.571 13.208C221.171 13.16 220.835 13.28 220.563 13.568C220.307 13.84 220.107 14.168 219.963 14.552C219.819 14.936 219.715 15.264 219.651 15.536C219.283 17.12 218.627 18.296 217.683 19.064C216.755 19.816 215.643 20.328 214.347 20.6L214.539 21.248C214.923 21.168 215.283 21.072 215.619 20.96C215.731 21.232 215.803 21.6 215.835 22.064C215.883 22.528 215.899 23.032 215.883 23.576C215.883 24.12 215.843 24.648 215.763 25.16C215.683 25.656 215.579 26.072 215.451 26.408C214.747 26.328 213.851 26.24 212.763 26.144C211.691 26.064 210.379 26.024 208.827 26.024C207.755 26.024 206.843 26.04 206.091 26.072C205.355 26.12 204.715 26.176 204.171 26.24C203.627 26.304 203.115 26.36 202.635 26.408Z" fill="#94191D"/>
</svg>
