<svg width="50" height="50" viewBox="0 0 50 50" fill="none" xmlns="http://www.w3.org/2000/svg">
<circle cx="25" cy="25" r="25" fill="#94191D"/>
<path d="M13.75 23.75C13.75 19.0363 13.75 16.6787 15.215 15.215C16.68 13.7512 19.0363 13.75 23.75 13.75H26.25C30.9637 13.75 33.3212 13.75 34.785 15.215C36.2487 16.68 36.25 19.0363 36.25 23.75V26.25C36.25 30.9637 36.25 33.3212 34.785 34.785C33.32 36.2487 30.9637 36.25 26.25 36.25H23.75C19.0363 36.25 16.6787 36.25 15.215 34.785C13.7512 33.32 13.75 30.9637 13.75 26.25V23.75Z" stroke="white" stroke-width="1.66667"/>
<path d="M30.625 21.25C31.6605 21.25 32.5 20.4105 32.5 19.375C32.5 18.3395 31.6605 17.5 30.625 17.5C29.5895 17.5 28.75 18.3395 28.75 19.375C28.75 20.4105 29.5895 21.25 30.625 21.25Z" fill="white"/>
<path d="M25 28.75C27.0711 28.75 28.75 27.0711 28.75 25C28.75 22.9289 27.0711 21.25 25 21.25C22.9289 21.25 21.25 22.9289 21.25 25C21.25 27.0711 22.9289 28.75 25 28.75Z" stroke="white" stroke-width="1.66667"/>
</svg>
