<svg width="42" height="42" viewBox="0 0 42 42" fill="none" xmlns="http://www.w3.org/2000/svg">
<path d="M33.125 32.0625C32.5833 30.3958 31.0208 29.1667 29.1667 29.1667H27.0833V22.9167C27.0833 22.3641 26.8638 21.8342 26.4731 21.4435C26.0824 21.0528 25.5525 20.8333 25 20.8333H12.5V16.6667H16.6667C17.2192 16.6667 17.7491 16.4472 18.1398 16.0565C18.5305 15.6658 18.75 15.1359 18.75 14.5833V10.4167H22.9167C24.0217 10.4167 25.0815 9.97768 25.8629 9.19628C26.6443 8.41488 27.0833 7.35507 27.0833 6.25V5.39583C29.576 6.40076 31.788 7.99474 33.5301 10.0413C35.2721 12.0879 36.4923 14.5261 37.0861 17.1473C37.68 19.7685 37.6298 22.4945 36.94 25.0921C36.2501 27.6897 34.9411 30.0814 33.125 32.0625ZM18.75 37.3542C10.5208 36.3333 4.16667 29.3333 4.16667 20.8333C4.16667 19.5417 4.33333 18.2917 4.60417 17.1042L14.5833 27.0833V29.1667C14.5833 30.2717 15.0223 31.3315 15.8037 32.1129C16.5851 32.8943 17.6449 33.3333 18.75 33.3333M20.8333 0C18.0975 0 15.3884 0.53887 12.8608 1.58584C10.3331 2.63282 8.0365 4.16739 6.10194 6.10194C2.19493 10.0089 0 15.308 0 20.8333C0 26.3587 2.19493 31.6577 6.10194 35.5647C8.0365 37.4993 10.3331 39.0339 12.8608 40.0808C15.3884 41.1278 18.0975 41.6667 20.8333 41.6667C26.3587 41.6667 31.6577 39.4717 35.5647 35.5647C39.4717 31.6577 41.6667 26.3587 41.6667 20.8333C41.6667 18.0975 41.1278 15.3884 40.0808 12.8608C39.0339 10.3331 37.4993 8.0365 35.5647 6.10194C33.6302 4.16739 31.3335 2.63282 28.8059 1.58584C26.2783 0.53887 23.5692 0 20.8333 0Z" fill="#94191D"/>
</svg>
