<svg width="50" height="50" viewBox="0 0 50 50" fill="none" xmlns="http://www.w3.org/2000/svg">
<path d="M19.854 6.56666L27.6498 11.4396C29.7221 10.7576 32.1332 10.4167 34.8832 10.4167H39.5832C40.1357 10.4167 40.6656 10.6362 41.0563 11.0269C41.447 11.4176 41.6665 11.9475 41.6665 12.5L41.6644 15.2833L41.5603 17.1479L41.4728 18.3667C41.3957 19.3187 41.3061 20.1167 41.1936 20.8354L41.6665 20.8333C42.7716 20.8333 43.8314 21.2723 44.6128 22.0537C45.3942 22.8351 45.8332 23.8949 45.8332 25V26.0417C45.8332 29.5708 41.1519 37.4792 37.5353 40.5896L37.4998 40.6167V41.6667C37.5002 42.7179 37.1032 43.7303 36.3884 44.5011C35.6736 45.2719 34.6939 45.7441 33.6457 45.8229L33.3332 45.8333H16.6665C15.5614 45.8333 14.5016 45.3943 13.7202 44.6129C12.9388 43.8315 12.4998 42.7717 12.4998 41.6667V40.6333L12.3644 40.5229C8.69775 37.4062 4.46025 30.1792 4.18109 26.4187L4.1665 26.0417V25C4.1665 23.8949 4.60549 22.8351 5.38689 22.0537C6.16829 21.2723 7.2281 20.8333 8.33317 20.8333H8.49567C8.41664 20.1411 8.36243 19.4462 8.33317 18.75V16.6667C8.33317 16.1141 8.55266 15.5842 8.94337 15.1935C9.33407 14.8028 9.86397 14.5833 10.4165 14.5833H14.0728C14.3603 14.5833 14.6707 14.6542 14.9894 14.775L16.729 7.82708C16.8089 7.50835 16.963 7.21302 17.1788 6.96522C17.3945 6.71741 17.6659 6.52417 17.9706 6.40126C18.2753 6.27835 18.6048 6.22926 18.9321 6.25801C19.2595 6.28676 19.5754 6.39252 19.854 6.56666ZM15.2853 18.7479L12.504 18.75L12.5603 19.625C12.595 20.0306 12.6394 20.4333 12.6936 20.8333H14.6561C14.7644 20.0931 14.9741 19.3979 15.2853 18.7479ZM37.4998 14.5833H34.8832C31.3165 14.5833 28.6269 15.2292 26.7123 16.4167C28.0036 17.5608 28.8473 19.1258 29.0936 20.8333H36.9561C37.2207 19.5521 37.3603 17.9167 37.4998 15.1792V14.5833ZM21.8748 18.75C21.2287 18.7501 20.5984 18.9505 20.0709 19.3236C19.5433 19.6967 19.1444 20.2241 18.929 20.8333H24.8207C24.674 20.4184 24.4414 20.0391 24.1381 19.7203C23.8347 19.4015 23.4674 19.1504 23.0603 18.9833L22.7144 18.8667C22.4412 18.7898 22.1587 18.7506 21.8748 18.75ZM20.0748 11.6167L19.2103 15.0854C20.205 14.6956 21.2732 14.5292 22.3394 14.5979C22.6673 14.2721 23.0129 13.9646 23.3748 13.6771L20.0748 11.6167Z" fill="#94191D"/>
</svg>
