<svg width="50" height="50" viewBox="0 0 50 50" fill="none" xmlns="http://www.w3.org/2000/svg">
<path d="M24.9998 4.16666C36.5061 4.16666 45.8332 13.4937 45.8332 25C45.8332 36.5062 36.5061 45.8333 24.9998 45.8333C13.4936 45.8333 4.1665 36.5062 4.1665 25C4.1665 13.4937 13.4936 4.16666 24.9998 4.16666ZM24.9998 12.5C24.4473 12.5 23.9174 12.7195 23.5267 13.1102C23.136 13.5009 22.9165 14.0308 22.9165 14.5833V25C22.9166 25.5525 23.1362 26.0823 23.5269 26.4729L29.7769 32.7229C30.1698 33.1024 30.6961 33.3124 31.2423 33.3076C31.7886 33.3029 32.3111 33.0838 32.6974 32.6975C33.0836 32.3113 33.3027 31.7887 33.3075 31.2425C33.3122 30.6963 33.1022 30.17 32.7228 29.7771L27.0832 24.1375V14.5833C27.0832 14.0308 26.8637 13.5009 26.473 13.1102C26.0823 12.7195 25.5524 12.5 24.9998 12.5Z" fill="#94191D"/>
</svg>
